<svg version="1.1" xmlns="http://www.w3.org/2000/svg" xmlns:xlink="http://www.w3.org/1999/xlink" width="48" height="48"><defs><linearGradient x1="21.97217" y1="15.88868" x2="43.6394" y2="49.72289" gradientUnits="userSpaceOnUse" id="color-1"><stop offset="0" stop-color="#000000" stop-opacity="0.3"></stop><stop offset="1" stop-color="#000000" stop-opacity="0"></stop></linearGradient><filter id="dropshadow-base"><feColorMatrix type="matrix" values="0 0 0 0 0  0 0 0 0 0  0 0 0 0 0  0 0 0 .8 0"></feColorMatrix> <feOffset dx="0" dy="1"></feOffset> <feGaussianBlur stdDeviation="1"></feGaussianBlur> <feComposite in="SourceGraphic"></feComposite></filter><filter id="dropshadow-banner" x="-10%" y="-10%" width="120%" height="130%"><feColorMatrix type="matrix" values="0 0 0 0 0  0 0 0 0 0  0 0 0 0 0  0 0 0 .4 0"></feColorMatrix> <feOffset dx="0" dy="1"></feOffset> <feGaussianBlur stdDeviation="0.5"></feGaussianBlur> <feComposite in="SourceGraphic"></feComposite></filter></defs><g fill="none" fill-rule="nonzero" stroke="none" stroke-width="none" stroke-linecap="butt" stroke-linejoin="miter" stroke-miterlimit="10" stroke-dasharray="" stroke-dashoffset="0" font-family="none" font-weight="none" font-size="none" text-anchor="none" style="mix-blend-mode: normal"><path d="M2,24c0,-12.15026 9.84974,-22 22,-22c12.15026,0 22,9.84974 22,22c0,12.15026 -9.84974,22 -22,22c-12.15026,0 -22,-9.84974 -22,-22z" id="base 1 5" fill="#ffffff" stroke-width="1"></path><path d="M21.97217,17.91651c0,-1.12038 0.90745,-2.02783 2.02783,-2.02783c0.56019,0 1.06714,0.22686 1.43406,0.59377l17.61157,17.61157c0,0 0,0 0,0c0.11568,0.11568 0.21744,0.24528 0.30256,0.38609c-0.58449,1.07679 -1.25624,2.09932 -2.00577,3.05811c-0.45249,-0.05994 -0.85776,-0.26895 -1.1649,-0.57609l-17.61157,-17.61157l0,0c-0.36691,-0.36691 -0.59377,-0.87387 -0.59377,-1.43406zM25.43406,22.56594l15.49051,15.49051c-0.86607,1.04163 -1.82648,2.00204 -2.86811,2.86811l-15.49051,-15.49051c-0.36691,-0.36691 -0.59377,-0.87387 -0.59377,-1.43406c0,-1.12038 0.90745,-2.02783 2.02783,-2.02783c0.56019,0 1.06714,0.22686 1.43406,0.59377zM25.43406,28.64943l12.43181,12.43181c-1.06822,0.8682 -2.21945,1.6382 -3.43995,2.29627l-11.85997,-11.85997l0,0c-0.36691,-0.36691 -0.59377,-0.87387 -0.59377,-1.43406c0,-1.12038 0.90745,-2.02783 2.02783,-2.02783c0.56019,0 1.06714,0.22686 1.43406,0.59377z" fill="url(#color-1)" stroke-width="1"></path><path d="M24,19.94434c1.12038,0 2.02783,-0.90745 2.02783,-2.02783c0,-1.12038 -0.90745,-2.02783 -2.02783,-2.02783c-1.12038,0 -2.02783,0.90745 -2.02783,2.02783c0,1.12038 0.90745,2.02783 2.02783,2.02783zM24,21.97217c-1.12038,0 -2.02783,0.90745 -2.02783,2.02783c0,1.12038 0.90745,2.02783 2.02783,2.02783c1.12038,0 2.02783,-0.90745 2.02783,-2.02783c0,-1.12038 -0.90745,-2.02783 -2.02783,-2.02783zM24,28.05566c-1.12038,0 -2.02783,0.90745 -2.02783,2.02783c0,1.12038 0.90745,2.02783 2.02783,2.02783c1.12038,0 2.02783,-0.90745 2.02783,-2.02783c0,-1.12038 -0.90745,-2.02783 -2.02783,-2.02783z" fill="none" stroke-width="0"></path><path d="M21.97217,17.91651c0,-1.12038 0.90745,-2.02783 2.02783,-2.02783c1.12038,0 2.02783,0.90745 2.02783,2.02783c0,1.12038 -0.90745,2.02783 -2.02783,2.02783c-1.12038,0 -2.02783,-0.90745 -2.02783,-2.02783zM26.02783,24c0,1.12038 -0.90745,2.02783 -2.02783,2.02783c-1.12038,0 -2.02783,-0.90745 -2.02783,-2.02783c0,-1.12038 0.90745,-2.02783 2.02783,-2.02783c1.12038,0 2.02783,0.90745 2.02783,2.02783zM26.02783,30.08349c0,1.12038 -0.90745,2.02783 -2.02783,2.02783c-1.12038,0 -2.02783,-0.90745 -2.02783,-2.02783c0,-1.12038 0.90745,-2.02783 2.02783,-2.02783c1.12038,0 2.02783,0.90745 2.02783,2.02783z" fill="#ffffff" stroke-width="0"></path><path d="M2,24c0,-12.15026 9.84974,-22 22,-22c12.15026,0 22,9.84974 22,22c0,12.15026 -9.84974,22 -22,22c-12.15026,0 -22,-9.84974 -22,-22z" id="base 1 1 1" fill="none" stroke-width="1"></path><g fill="#000000" stroke-width="1" font-family="Roboto, sans-serif" font-weight="400" font-size="14" text-anchor="start"></g><rect x="2" y="2" width="44" height="22" fill="none" stroke-width="1"></rect><path d="M2,24v-22h44v22z" fill="none" stroke-width="1"></path><path d="M2,24v-22h44v22z" fill="none" stroke-width="1"></path><path d="M2,24v-22h44v22z" fill="none" stroke-width="1"></path><path d="M2,24v-22h44v22z" fill="none" stroke-width="1"></path></g></svg>